<?xml version="1.0" encoding="UTF-8"?>
<!DOCTYPE svg PUBLIC "-//W3C//DTD SVG 1.1//EN" "http://www.w3.org/Graphics/SVG/1.1/DTD/svg11.dtd">
<svg version="1.1" xmlns="http://www.w3.org/2000/svg" xmlns:xlink="http://www.w3.org/1999/xlink" x="0" y="0" width="1000" height="1000" viewBox="0, 0, 1000, 1000">
  <g id="bg">
    <path d="M0,0 L1000,0 L1000,1000 L0,1000 L0,0 z" fill="#000000"/>
  </g>
  <g id="final">
    <path d="M571.698,313.066 L573.136,321.223 Q575.313,333.569 568.156,343.81 Q560.999,354.051 549.046,356.158 Q536.225,358.419 526.195,351.095 Q516.164,343.771 514.026,331.646 L512.588,323.488 Q510.411,311.143 517.568,300.902 Q524.725,290.661 536.678,288.553 Q549.499,286.292 559.549,293.727 Q569.599,301.161 571.698,313.066 z M443.457,302.49 L453.719,360.692 L341.884,316.081 Q333.679,312.754 331.237,310.344 Q328.795,307.933 328.134,304.185 Q327.201,298.894 329.839,294.792 Q332.477,290.689 337.041,289.885 Q339.648,289.425 344.011,290.02 z" fill="#FFFFFF"/>
    <path d="M541.867,558.235 L515.79,562.833 L491.398,424.502 L517.476,419.904 z" fill="#FFFFFF"/>
    <path d="M861.787,435.775 L865.622,456.738 Q875.625,511.413 844.946,544.546 Q814.267,577.679 741.987,590.903 L651.245,607.504 Q631.996,611.025 617.443,616.908 Q602.889,622.791 593.904,632.486 Q584.92,642.181 581.804,656.219 Q578.689,670.256 582.265,689.803 L584.493,701.985 L529.891,711.974 L527.662,699.792 Q523.879,679.112 516.755,666.802 Q509.631,654.491 498.659,648.886 Q487.688,643.281 472.242,643.18 Q456.796,643.078 436.37,646.815 L298.881,671.968 Q265.884,678.005 238.332,677.19 Q210.779,676.375 189.788,667.04 Q168.797,657.706 154.996,638.858 Q141.196,620.011 135.754,590.265 L131.919,569.302 L186.914,559.241 L190.024,576.238 Q201.996,641.678 290.381,625.508 L426.299,600.642 Q522.148,583.107 544.868,640.725 Q542.864,578.732 641.856,560.621 L731.812,544.164 Q821.769,527.707 809.901,462.833 L806.791,445.836 z" fill="#01CA24"/>
  </g>
</svg>
